<?xml version="1.0" standalone="no"?>
<!DOCTYPE svg PUBLIC "-//W3C//DTD SVG 20010904//EN"
 "http://www.w3.org/TR/2001/REC-SVG-20010904/DTD/svg10.dtd">
<svg version="1.0" xmlns="http://www.w3.org/2000/svg"
 width="1236.000000pt" height="1236.000000pt" viewBox="0 0 1236.000000 1236.000000"
 preserveAspectRatio="xMidYMid meet">
<metadata>
Created by potrace 1.14, written by Peter Selinger 2001-2017
</metadata>
<g transform="translate(0.000000,1236.000000) scale(0.100000,-0.100000)"
fill="#000000" stroke="none">
<path d="M5495 9519 c-324 -209 -611 -393 -636 -408 l-45 -29 1 44 c1 23 -1
48 -5 53 -4 8 -213 10 -690 9 l-685 -3 0 -496 0 -496 -447 -289 c-247 -159
-447 -292 -446 -295 11 -25 535 -848 541 -849 4 0 41 23 82 50 l75 51 0 -1576
0 -1575 -1620 0 -1620 0 0 -160 0 -160 1780 0 1780 0 0 1723 c1 947 2 1856 3
2020 2 164 0 302 -3 307 -3 6 -89 -44 -191 -110 -141 -91 -187 -116 -195 -107
-31 32 -185 290 -177 296 4 4 178 117 386 251 l377 243 0 423 0 424 365 0 365
0 0 -185 c0 -102 2 -185 5 -185 3 0 379 241 836 535 457 294 839 535 849 535
16 0 3149 -2009 3184 -2041 6 -6 -146 -267 -179 -307 -3 -3 -222 135 -334 210
-24 16 -45 28 -46 26 -2 -2 -6 -915 -10 -2030 l-7 -2028 1786 0 1786 0 0 160
0 160 -1620 0 -1620 0 0 1575 0 1576 75 -51 c41 -27 78 -50 82 -50 14 0 546
851 537 859 -5 5 -299 195 -654 423 -355 228 -917 590 -1250 805 -333 215
-837 539 -1120 722 l-514 331 -96 0 -95 -1 -590 -380z"/>
<path d="M6134 8429 c-46 -23 -53 -53 -53 -246 -1 -100 3 -193 8 -206 28 -73
114 -91 167 -36 l29 30 3 189 c3 158 1 194 -13 223 -24 51 -87 72 -141 46z"/>
<path d="M5077 8116 c-30 -28 -42 -65 -33 -102 8 -32 218 -293 254 -316 48
-32 106 -18 135 32 35 58 26 79 -104 240 -67 83 -129 155 -139 160 -34 18 -85
12 -113 -14z"/>
<path d="M7173 8125 c-21 -14 -197 -227 -235 -284 -64 -94 55 -209 142 -138
22 17 224 268 238 294 46 85 -66 183 -145 128z"/>
<path d="M6033 7749 c-374 -42 -725 -258 -938 -578 -140 -211 -211 -440 -214
-694 -4 -301 87 -561 300 -856 39 -53 101 -139 140 -191 76 -104 141 -223 158
-285 5 -22 13 -106 16 -186 8 -224 38 -306 134 -374 l43 -30 522 -3 522 -3 41
30 c73 53 86 97 94 311 6 171 8 192 37 273 41 120 103 220 255 409 70 88 148
195 173 237 54 93 117 251 138 351 9 41 19 86 22 100 14 59 13 317 -2 405 -91
546 -520 976 -1073 1075 -82 15 -274 19 -368 9z m377 -169 c219 -43 422 -152
585 -315 221 -220 337 -496 337 -800 0 -151 -12 -225 -58 -369 -49 -152 -117
-266 -266 -444 -159 -190 -254 -361 -295 -530 -10 -42 -17 -126 -19 -225 -2
-86 -8 -165 -13 -175 -8 -15 -25 -17 -133 -17 -102 1 -123 3 -121 15 5 41 25
198 28 218 2 13 25 173 50 355 26 183 57 404 69 492 13 88 21 166 19 173 -8
21 -43 13 -69 -15 -28 -30 -55 -112 -84 -258 -53 -259 -85 -274 -135 -60 -14
61 -32 142 -41 180 -29 124 -67 174 -120 161 -47 -12 -66 -59 -114 -274 -35
-161 -63 -230 -84 -212 -20 16 -40 81 -71 225 -33 154 -52 208 -81 240 -23 25
-58 33 -68 17 -3 -5 10 -119 29 -253 19 -134 37 -260 40 -279 6 -47 94 -680
98 -705 3 -20 -1 -21 -86 -19 -75 1 -92 4 -109 22 -31 31 -45 104 -47 241 -2
151 -11 200 -55 300 -39 91 -97 183 -211 336 -250 335 -341 546 -349 813 -11
322 104 612 334 843 177 178 374 281 620 323 52 9 111 17 130 18 50 4 225 -10
290 -22z m-224 -1696 c8 -20 33 -112 54 -205 22 -93 44 -179 51 -191 20 -39
52 -68 74 -68 52 0 88 73 126 258 13 63 25 109 27 104 6 -18 -143 -1060 -153
-1070 -3 -3 -96 -6 -207 -7 -192 0 -201 1 -209 20 -4 11 -20 106 -34 210 -14
105 -28 204 -30 220 -71 508 -86 618 -82 621 2 2 14 -44 26 -102 38 -180 74
-254 126 -254 50 0 82 64 120 242 55 255 78 301 111 222z m341 -76 c-3 -8 -6
-5 -6 6 -1 11 2 17 5 13 3 -3 4 -12 1 -19z m-730 -10 c-3 -8 -6 -5 -6 6 -1 11
2 17 5 13 3 -3 4 -12 1 -19z"/>
<path d="M4334 7311 c-46 -28 -61 -80 -37 -129 16 -32 37 -47 171 -119 179
-95 197 -102 238 -92 42 12 65 40 71 87 4 33 1 44 -23 70 -32 34 -339 202
-370 202 -10 0 -33 -9 -50 -19z"/>
<path d="M7865 7278 c-49 -27 -124 -67 -166 -89 -111 -60 -139 -125 -81 -189
45 -51 76 -45 248 45 82 43 161 86 176 97 60 41 52 140 -14 174 -41 21 -65 16
-163 -38z"/>
<path d="M4245 6264 c-41 -21 -54 -43 -55 -90 0 -32 6 -48 26 -68 15 -14 32
-27 38 -28 51 -7 368 -4 393 4 44 13 73 52 73 97 -1 41 -15 65 -54 85 -40 20
-381 21 -421 0z"/>
<path d="M7704 6264 c-64 -32 -76 -107 -24 -158 l30 -31 183 -1 c100 -1 196 3
212 7 75 21 98 103 46 161 l-29 33 -194 2 c-158 2 -199 0 -224 -13z"/>
<path d="M5535 4485 c-14 -13 -25 -36 -25 -50 0 -14 11 -37 25 -50 l24 -25
610 0 610 0 20 26 c12 15 21 37 21 49 0 12 -9 34 -21 49 l-20 26 -610 0 -610
0 -24 -25z"/>
<path d="M5573 4282 c-29 -4 -63 -47 -63 -79 0 -13 11 -35 25 -48 23 -24 31
-25 135 -25 92 0 110 -3 110 -15 0 -33 41 -128 75 -174 151 -206 493 -198 634
15 29 44 61 129 61 161 0 10 26 13 110 13 104 0 112 1 135 25 32 31 32 66 1
102 l-24 28 -589 0 c-323 0 -598 -1 -610 -3z m786 -184 c-20 -70 -107 -128
-194 -128 -87 0 -157 46 -190 123 l-15 37 204 0 205 0 -10 -32z"/>
</g>
</svg>
