<?xml version="1.0" standalone="no"?>
<!DOCTYPE svg PUBLIC "-//W3C//DTD SVG 20010904//EN"
 "http://www.w3.org/TR/2001/REC-SVG-20010904/DTD/svg10.dtd">
<svg version="1.0" xmlns="http://www.w3.org/2000/svg"
 width="300.000000pt" height="300.000000pt" viewBox="0 0 300.000000 300.000000"
 preserveAspectRatio="xMidYMid meet">
<metadata>
Created by potrace 1.11, written by Peter Selinger 2001-2013
</metadata>
<g transform="translate(0.000000,300.000000) scale(0.100000,-0.100000)"
fill="#000000" stroke="none">
<path d="M1413 2678 c-8 -9 -17 -32 -19 -50 -7 -54 -25 -64 -174 -92 -26 -5
-56 14 -74 49 -24 43 -47 47 -121 16 -80 -33 -88 -43 -80 -113 l7 -57 -49 -35
c-26 -19 -62 -43 -80 -52 -31 -17 -32 -17 -65 8 -57 43 -71 42 -131 -16 -66
-64 -73 -85 -41 -131 32 -48 30 -65 -13 -133 -58 -88 -63 -92 -119 -78 -55 13
-79 -5 -109 -82 -31 -79 -26 -100 25 -127 46 -24 49 -39 30 -128 -19 -86 -35
-107 -82 -107 -47 0 -65 -31 -66 -111 -1 -63 2 -73 24 -94 14 -13 34 -21 48
-20 22 3 65 -25 67 -43 2 -25 9 -63 18 -102 11 -51 -2 -83 -44 -102 -36 -16
-45 -46 -28 -93 21 -57 36 -88 50 -102 13 -15 57 -17 81 -4 30 15 60 -6 106
-75 39 -58 43 -70 35 -93 -6 -14 -16 -33 -24 -41 -13 -15 -18 -34 -16 -58 1
-14 95 -111 108 -113 4 0 16 -2 26 -4 10 -2 29 8 42 21 34 34 61 30 137 -21
72 -48 87 -74 70 -122 -12 -36 11 -79 47 -88 14 -4 40 -13 58 -22 48 -22 74
-14 106 35 32 47 36 48 140 27 18 -4 27 -1 28 7 0 7 2 24 5 37 6 33 -11 90
-43 138 -22 34 -38 46 -87 64 -316 114 -537 372 -602 704 -13 67 -13 280 -1
332 36 148 74 240 141 340 113 173 277 298 476 366 103 35 184 45 320 42 233
-6 448 -101 613 -270 183 -187 268 -403 262 -662 -3 -137 -6 -154 -36 -252
-87 -286 -296 -501 -588 -606 -83 -29 -86 -31 -103 -75 -17 -45 -23 -125 -12
-154 4 -10 14 -14 28 -11 102 23 116 22 144 -12 59 -73 61 -74 162 -25 48 24
55 31 58 59 2 18 -1 40 -6 49 -17 30 -1 53 65 99 72 51 91 54 133 24 44 -33
72 -28 124 23 63 63 71 87 41 129 -13 19 -25 42 -27 52 -2 9 17 49 42 87 48
75 73 91 120 73 42 -16 74 7 99 69 39 98 41 91 -45 166 -21 18 -21 21 -8 91 8
39 18 80 24 91 10 19 47 36 57 26 7 -6 62 21 64 32 1 4 3 36 4 72 4 84 -15
120 -62 120 -30 0 -72 27 -74 48 0 4 -3 16 -5 27 -3 11 -7 34 -9 50 -3 17 -7
41 -10 53 -4 24 32 72 55 72 6 0 17 14 24 32 12 28 11 37 -12 87 -38 86 -52
97 -106 84 -56 -13 -70 -4 -118 69 -50 76 -50 81 -19 129 16 23 26 50 24 59
-7 27 -95 115 -120 122 -14 4 -32 -1 -47 -13 -49 -39 -71 -41 -115 -8 -23 16
-44 29 -49 29 -12 0 -62 50 -63 63 -2 14 0 20 11 60 12 37 -18 68 -93 97 -66
26 -100 19 -117 -24 -14 -38 -46 -55 -83 -46 -18 5 -50 11 -72 14 -47 7 -89
47 -80 77 4 12 -2 27 -19 44 -23 23 -32 25 -96 23 -53 -2 -75 -7 -87 -20z"/>
<path d="M1441 2293 c-40 -28 -92 -169 -106 -287 -6 -50 -19 -76 -38 -76 -5 0
-34 27 -65 60 -77 85 -112 101 -163 74 -75 -38 -76 -123 -5 -266 33 -66 49
-111 52 -146 6 -84 -28 -92 -107 -26 -53 44 -86 61 -125 65 -74 8 -124 -57
-120 -154 4 -74 35 -135 107 -206 83 -84 105 -120 100 -168 -2 -18 -32 -20
-85 -5 -43 12 -51 12 -64 -2 -18 -18 -20 -86 -3 -128 l10 -28 93 58 c196 122
178 107 172 152 -4 36 -3 40 18 41 13 0 31 2 41 4 9 2 24 -3 32 -11 12 -12 28
-5 122 54 59 38 129 81 155 96 l48 28 27 -20 c62 -43 613 -382 622 -382 13 0
23 33 26 86 4 58 -12 71 -67 53 -47 -15 -74 -15 -94 2 -34 28 -4 87 96 187
151 153 168 259 54 332 -63 40 -118 28 -194 -42 -34 -31 -76 -58 -92 -58 -53
0 -35 135 31 235 44 66 53 92 54 154 0 36 -5 49 -27 68 -47 40 -81 32 -173
-43 -30 -24 -63 -44 -73 -44 -33 0 -58 35 -70 97 -24 120 -70 237 -98 248 -35
15 -69 14 -91 -2z"/>
<path d="M1203 1067 c-161 -100 -291 -186 -290 -192 8 -23 133 -96 200 -116
103 -31 175 -70 231 -124 51 -50 100 -142 111 -210 8 -45 8 -45 0 -100 l-6
-40 53 0 53 0 0 105 c0 95 3 111 28 162 16 32 47 76 70 98 43 43 137 93 197
105 63 13 183 83 218 126 13 17 0 28 -88 77 -14 7 -32 19 -40 26 -8 7 -39 26
-67 42 -29 16 -53 32 -53 37 0 4 -5 7 -11 7 -6 0 -29 12 -52 28 -23 15 -51 32
-62 39 -11 6 -57 35 -101 62 -45 28 -85 51 -90 51 -5 0 -141 -82 -301 -183z"/>
</g>
</svg>
